<?xml version="1.0" encoding="UTF-8" standalone="no"?>
<!-- Created with Inkscape (http://www.inkscape.org/) -->

<svg
   xmlns:dc="http://purl.org/dc/elements/1.1/"
   xmlns:cc="http://creativecommons.org/ns#"
   xmlns:rdf="http://www.w3.org/1999/02/22-rdf-syntax-ns#"
   xmlns:svg="http://www.w3.org/2000/svg"
   xmlns="http://www.w3.org/2000/svg"
   xmlns:sodipodi="http://sodipodi.sourceforge.net/DTD/sodipodi-0.dtd"
   xmlns:inkscape="http://www.inkscape.org/namespaces/inkscape"
   width="167.99332mm"
   height="31.644159mm"
   viewBox="0 0 167.99332 31.644159"
   version="1.1"
   id="svg45"
   inkscape:version="0.92.3 (2405546, 2018-03-11)"
   sodipodi:docname="name.svg">
  <defs
     id="defs39" />
  <sodipodi:namedview
     id="base"
     pagecolor="#ffffff"
     bordercolor="#666666"
     borderopacity="1.0"
     inkscape:pageopacity="0.0"
     inkscape:pageshadow="2"
     inkscape:zoom="0.35"
     inkscape:cx="-58.171435"
     inkscape:cy="-49.333392"
     inkscape:document-units="mm"
     inkscape:current-layer="layer1"
     showgrid="false"
     fit-margin-top="0"
     fit-margin-left="0"
     fit-margin-right="0"
     fit-margin-bottom="0"
     inkscape:window-width="1366"
     inkscape:window-height="713"
     inkscape:window-x="0"
     inkscape:window-y="27"
     inkscape:window-maximized="1" />
  <metadata
     id="metadata42">
    <rdf:RDF>
      <cc:Work
         rdf:about="">
        <dc:format>image/svg+xml</dc:format>
        <dc:type
           rdf:resource="http://purl.org/dc/dcmitype/StillImage" />
        <dc:title></dc:title>
      </cc:Work>
    </rdf:RDF>
  </metadata>
  <g
     inkscape:label="Layer 1"
     inkscape:groupmode="layer"
     id="layer1"
     transform="translate(-36.935835,-104.13638)">
    <g
       aria-label="Yugo Yagita"
       style="font-style:normal;font-variant:normal;font-weight:normal;font-stretch:normal;font-size:35.27777481px;line-height:6.61458302px;font-family:'Noto Color Emoji';-inkscape-font-specification:'Noto Color Emoji';letter-spacing:0px;word-spacing:0px;writing-mode:tb-rl;fill:#000000;fill-opacity:1;stroke:none;stroke-width:0.26458332"
       id="text49">
      <path
         d="m 44.62639,117.50666 v 10.16 h 3.563055 v -10.16 L 55.88,104.13638 h -4.056944 l -5.432778,9.41917 -5.362222,-9.41917 h -4.092221 z"
         style="font-style:normal;font-variant:normal;font-weight:500;font-stretch:normal;font-family:Futura;-inkscape-font-specification:'Futura Medium';writing-mode:lr-tb;stroke-width:0.26458332"
         id="path51"
         inkscape:connector-curvature="0" />
      <path
         d="m 59.496523,112.81471 h -3.421945 v 8.60778 c 0,2.32833 0.423334,3.59833 1.552222,4.83306 1.199445,1.23472 2.822222,1.86972 4.7625,1.86972 1.975555,0 3.598333,-0.635 4.797777,-1.86972 1.128889,-1.23473 1.552223,-2.50473 1.552223,-4.83306 v -8.60778 h -3.421945 v 8.53722 c 0,2.54 -0.917222,3.70417 -2.892777,3.70417 -2.010833,0 -2.928055,-1.16417 -2.928055,-3.70417 z"
         style="font-style:normal;font-variant:normal;font-weight:500;font-stretch:normal;font-family:Futura;-inkscape-font-specification:'Futura Medium';writing-mode:lr-tb;stroke-width:0.26458332"
         id="path53"
         inkscape:connector-curvature="0" />
      <path
         d="m 87.589207,112.81471 h -3.421944 v 1.69334 c -1.199445,-1.34056 -2.822222,-2.08139 -4.656666,-2.08139 -4.021667,0 -6.949722,3.35139 -6.949722,7.9375 0,4.48027 2.928055,7.76111 6.914444,7.76111 1.834444,0 3.280833,-0.635 4.691944,-2.11667 v 2.08139 c 0,1.44639 -0.211667,2.39889 -0.670278,3.10444 -0.599722,0.91723 -1.799166,1.51695 -3.104444,1.51695 -0.917222,0 -1.834444,-0.3175 -2.54,-0.84667 -0.705555,-0.52916 -1.023055,-1.16416 -1.340555,-2.57528 h -3.351389 c 0.246945,1.97556 0.564444,2.89278 1.27,3.84528 1.27,1.65806 3.527777,2.64583 5.997222,2.64583 2.469444,0 4.621388,-1.05833 5.891388,-2.8575 0.9525,-1.37583 1.27,-2.71638 1.27,-5.60916 z m -7.44361,2.68111 c 2.469444,0 4.162777,1.94028 4.162777,4.79778 0,2.82222 -1.693333,4.7625 -4.162777,4.7625 -1.023056,0 -2.081389,-0.42333 -2.8575,-1.19944 -0.846667,-0.84667 -1.234722,-1.94028 -1.234722,-3.56306 0,-2.89278 1.622777,-4.79778 4.092222,-4.79778 z"
         style="font-style:normal;font-variant:normal;font-weight:500;font-stretch:normal;font-family:Futura;-inkscape-font-specification:'Futura Medium';writing-mode:lr-tb;stroke-width:0.26458332"
         id="path55"
         inkscape:connector-curvature="0" />
      <path
         d="m 99.238041,112.42666 c -4.374444,0 -7.902221,3.45722 -7.902221,7.72583 0,4.51556 3.421944,7.97278 7.866944,7.97278 4.515556,0 7.972776,-3.42195 7.972776,-7.86695 0,-4.40972 -3.45722,-7.83166 -7.937499,-7.83166 z m 0,3.06916 c 2.681109,0 4.444999,1.905 4.444999,4.79778 0,2.8575 -1.76389,4.7625 -4.444999,4.7625 -2.681111,0 -4.409722,-1.905 -4.409722,-4.83305 0,-2.82223 1.799167,-4.72723 4.409722,-4.72723 z"
         style="font-style:normal;font-variant:normal;font-weight:500;font-stretch:normal;font-family:Futura;-inkscape-font-specification:'Futura Medium';writing-mode:lr-tb;stroke-width:0.26458332"
         id="path57"
         inkscape:connector-curvature="0" />
      <path
         d="m 125.03491,117.50666 v 10.16 h 3.56306 v -10.16 l 7.69055,-13.37028 h -4.05694 l -5.43278,9.41917 -5.36222,-9.41917 h -4.09222 z"
         style="font-style:normal;font-variant:normal;font-weight:500;font-stretch:normal;font-family:Futura;-inkscape-font-specification:'Futura Medium';writing-mode:lr-tb;stroke-width:0.26458332"
         id="path59"
         inkscape:connector-curvature="0" />
      <path
         d="m 147.41921,112.81471 v 1.72861 c -1.48166,-1.55222 -2.75166,-2.11666 -4.65666,-2.11666 -3.98639,0 -6.985,3.31611 -6.985,7.79639 0,4.55083 2.99861,7.90222 7.09083,7.90222 1.79917,0 2.96333,-0.52917 4.55083,-2.01084 v 1.55223 h 3.42195 v -14.85195 z m -4.02166,2.68111 c 2.50472,0 4.23333,1.97556 4.23333,4.79778 0,2.82222 -1.72861,4.7625 -4.26861,4.7625 -2.39889,0 -4.09222,-2.01083 -4.09222,-4.83305 0,-2.71639 1.76388,-4.72723 4.1275,-4.72723 z"
         style="font-style:normal;font-variant:normal;font-weight:500;font-stretch:normal;font-family:Futura;-inkscape-font-specification:'Futura Medium';writing-mode:lr-tb;stroke-width:0.26458332"
         id="path61"
         inkscape:connector-curvature="0" />
      <path
         d="m 169.72028,112.81471 h -3.42195 v 1.69334 c -1.19944,-1.34056 -2.82222,-2.08139 -4.65666,-2.08139 -4.02167,0 -6.94973,3.35139 -6.94973,7.9375 0,4.48027 2.92806,7.76111 6.91445,7.76111 1.83444,0 3.28083,-0.635 4.69194,-2.11667 v 2.08139 c 0,1.44639 -0.21166,2.39889 -0.67028,3.10444 -0.59972,0.91723 -1.79916,1.51695 -3.10444,1.51695 -0.91722,0 -1.83444,-0.3175 -2.54,-0.84667 -0.70556,-0.52916 -1.02306,-1.16416 -1.34056,-2.57528 h -3.35138 c 0.24694,1.97556 0.56444,2.89278 1.27,3.84528 1.27,1.65806 3.52777,2.64583 5.99722,2.64583 2.46944,0 4.62139,-1.05833 5.89139,-2.8575 0.9525,-1.37583 1.27,-2.71638 1.27,-5.60916 z m -7.44361,2.68111 c 2.46944,0 4.16277,1.94028 4.16277,4.79778 0,2.82222 -1.69333,4.7625 -4.16277,4.7625 -1.02306,0 -2.08139,-0.42333 -2.8575,-1.19944 -0.84667,-0.84667 -1.23473,-1.94028 -1.23473,-3.56306 0,-2.89278 1.62278,-4.79778 4.09223,-4.79778 z"
         style="font-style:normal;font-variant:normal;font-weight:500;font-stretch:normal;font-family:Futura;-inkscape-font-specification:'Futura Medium';writing-mode:lr-tb;stroke-width:0.26458332"
         id="path63"
         inkscape:connector-curvature="0" />
      <path
         d="m 177.49187,112.81471 h -3.42195 v 14.85195 h 3.42195 z m -1.72861,-8.39611 c -1.19945,0 -2.2225,1.02306 -2.2225,2.2225 0,1.23472 0.98777,2.25778 2.25777,2.25778 1.23473,0 2.2225,-1.02306 2.2225,-2.25778 0,-1.23472 -0.98777,-2.2225 -2.25777,-2.2225 z"
         style="font-style:normal;font-variant:normal;font-weight:500;font-stretch:normal;font-family:Futura;-inkscape-font-specification:'Futura Medium';writing-mode:lr-tb;stroke-width:0.26458332"
         id="path65"
         inkscape:connector-curvature="0" />
      <path
         d="m 185.34833,116.02499 h 2.68111 v -3.21028 h -2.68111 v -5.43277 h -3.42195 v 5.43277 h -1.44639 v 3.21028 h 1.44639 v 11.64167 h 3.42195 z"
         style="font-style:normal;font-variant:normal;font-weight:500;font-stretch:normal;font-family:Futura;-inkscape-font-specification:'Futura Medium';writing-mode:lr-tb;stroke-width:0.26458332"
         id="path67"
         inkscape:connector-curvature="0" />
      <path
         d="m 201.50721,112.81471 v 1.72861 c -1.48167,-1.55222 -2.75167,-2.11666 -4.65667,-2.11666 -3.98639,0 -6.985,3.31611 -6.985,7.79639 0,4.55083 2.99861,7.90222 7.09084,7.90222 1.79916,0 2.96333,-0.52917 4.55083,-2.01084 v 1.55223 h 3.42194 v -14.85195 z m -4.02167,2.68111 c 2.50473,0 4.23334,1.97556 4.23334,4.79778 0,2.82222 -1.72861,4.7625 -4.26861,4.7625 -2.39889,0 -4.09223,-2.01083 -4.09223,-4.83305 0,-2.71639 1.76389,-4.72723 4.1275,-4.72723 z"
         style="font-style:normal;font-variant:normal;font-weight:500;font-stretch:normal;font-family:Futura;-inkscape-font-specification:'Futura Medium';writing-mode:lr-tb;stroke-width:0.26458332"
         id="path69"
         inkscape:connector-curvature="0" />
    </g>
  </g>
</svg>
